# xmcd
#
# Track frame offsets: 
#        150
#        15270
#        30688
#        43928
#        56682
#        73500
#        82817
#        103090
#        115554
#        126501
#        141415
#        151474
#
# Disc length: 2169 seconds
#
# Revision: 3
# Processed by: cddbd v1.5.2PL0 Copyright (c) Steve Scherf et al.
# Submitted via: ExactAudioCopyFreeDBPlugin 1.0
#
DISCID=9e08770c
DTITLE=Marvin Gaye - That's The Way Love Is
DYEAR=1969
DGENRE=R&B
TTITLE0=Gonna Give Her All The Love
TTITLE1=Yesterday
TTITLE2=Groovin'
TTITLE3=I Wish It Would Rain
TTITLE4=That's The Way Love Is
TTITLE5=How Can I Forget
TTITLE6=Abraham, Martin and John
TTITLE7=Keep Tryin Till I Win Ur Luv
TTITLE8=No Time 4 Tears
TTITLE9=Cloud Nine
TTITLE10=Don't U Miss Me A Little Bit
TTITLE11=So Long
EXTD=YEAR: 1969 ID3G: 42
EXTT0=
EXTT1=
EXTT2=
EXTT3=
EXTT4=
EXTT5=
EXTT6=
EXTT7=
EXTT8=
EXTT9=
EXTT10=
EXTT11=
PLAYORDER=
